<svg width="32" height="32" viewBox="0 0 32 32" fill="none" xmlns="http://www.w3.org/2000/svg">
<path d="M29.3784 1H2.62162C2.19154 1 1.77907 1.17085 1.47496 1.47496C1.17085 1.77907 1 2.19154 1 2.62162V29.3784C1 29.8085 1.17085 30.2209 1.47496 30.525C1.77907 30.8292 2.19154 31 2.62162 31H29.3784C29.8085 31 30.2209 30.8292 30.525 30.525C30.8292 30.2209 31 29.8085 31 29.3784V2.62162C31 2.19154 30.8292 1.77907 30.525 1.47496C30.2209 1.17085 29.8085 1 29.3784 1Z" stroke="white" stroke-linecap="round" stroke-linejoin="round"/>
<path d="M23.4389 10.0258L19.7189 21.9739L15.9997 10.0258L12.2805 21.9739L8.56055 10.0258" stroke="white" stroke-linecap="round" stroke-linejoin="round"/>
</svg>
